<?xml version="1.0" encoding="UTF-8" standalone="no"?>
<!DOCTYPE svg PUBLIC "-//W3C//DTD SVG 1.1//EN" "http://www.w3.org/Graphics/SVG/1.1/DTD/svg11.dtd">
<svg width="100%" height="100%" viewBox="0 0 16 20" version="1.1" xmlns="http://www.w3.org/2000/svg" xmlns:xlink="http://www.w3.org/1999/xlink" xml:space="preserve" xmlns:serif="http://www.serif.com/" style="fill-rule:evenodd;clip-rule:evenodd;stroke-linejoin:round;stroke-miterlimit:2;">
    <g transform="matrix(0.0599337,0,0,0.0599337,-7.28794,-5.57085)">
        <path d="M381.9,336.25C381.9,336.25 379.267,291.983 336.8,253.45C323.3,241.95 307.4,233.15 290,227.95C305.903,218.302 317.94,202.517 322.752,184.511C325.751,173.285 326.098,161.927 323.816,150.61C321.935,141.28 318.137,132.352 312.823,124.467C281.015,77.272 206.93,84.426 184.841,136.927C181.306,145.328 178.816,156.194 179.1,165.35C179.522,178.964 182.001,189.909 188.8,201.788C194.929,212.495 203.843,221.576 214.4,227.95C179.776,238.418 150.939,263.395 134.716,295.482C128.932,306.921 126.722,315.417 123.707,328.398C123.111,330.968 122.905,333.619 122.7,336.25C122,341.75 121.6,347.45 121.6,353.15L121.6,359.95C121.6,389.35 145.4,413.15 174.8,413.15L329.8,413.15C359.2,413.15 383,389.35 383,359.95L383,353.15C383,347.45 382.6,341.75 381.9,336.25ZM194.9,165.35C194.9,133.85 220.5,108.25 252,108.25C283.5,108.25 309.1,133.85 309.1,165.35C309.1,195.75 285.2,220.65 255.3,222.35L248.7,222.35C218.8,220.65 194.9,195.75 194.9,165.35ZM366.8,359.95C366.8,380.45 350.1,397.15 329.6,397.15L174.6,397.15C154.1,397.15 137.4,380.45 137.4,359.95L137.4,353.15C137.4,291.05 187,240.25 248.7,238.45C250.167,238.583 254.033,238.583 255.5,238.45C317.2,240.25 366.8,291.05 366.8,353.15L366.8,359.95Z" style="fill:white;fill-rule:nonzero;"/>
    </g>
</svg>
