<svg xmlns="http://www.w3.org/2000/svg" xmlns:xlink="http://www.w3.org/1999/xlink" viewBox="0 0 22.7 22.7" fill="currentColor">
<path d="M14.9,5.3c0.5,0,0.9,0.4,0.9,0.9c0,0.5-0.4,0.9-0.9,0.9H5.8c-0.1,0-0.2,0-0.4-0.1C5.3,7,5.2,6.9,5.2,6.8
	C5.1,6.7,5,6.6,5,6.5c0-0.1-0.1-0.2-0.1-0.3c0-0.1,0-0.2,0-0.3C5,5.9,5,5.8,5.1,5.7c0.1-0.2,0.3-0.3,0.4-0.3c0.1,0,0.2-0.1,0.3-0.1
	h0H14.9z M11.4,8.9c0.5,0,0.9,0.4,0.9,0.9c0,0.5-0.4,0.9-0.9,0.9H5.8c-0.1,0-0.2,0-0.4-0.1c-0.1,0-0.2-0.1-0.3-0.2
	C5.1,10.3,5,10.2,5,10.1c0-0.1-0.1-0.2-0.1-0.3c0-0.1,0-0.2,0-0.3C5,9.4,5,9.3,5.1,9.3C5.2,9.1,5.3,9,5.5,8.9c0.1,0,0.2-0.1,0.3-0.1
	h0H11.4z M9.5,12.4c0.5,0,0.9,0.4,0.9,0.9c0,0.5-0.4,0.9-0.9,0.9H5.8c-0.1,0-0.2,0-0.4-0.1c-0.1,0-0.2-0.1-0.3-0.2
	C5.1,13.8,5,13.7,5,13.6c0-0.1-0.1-0.2-0.1-0.3c0-0.1,0-0.2,0-0.3C5,13,5,12.9,5.1,12.8c0.1-0.2,0.3-0.3,0.4-0.3
	c0.1,0,0.2-0.1,0.3-0.1h0H9.5z M14,14.3c0,0.9,0.7,1.6,1.6,1.6c0.9,0,1.6-0.7,1.6-1.6s-0.7-1.6-1.6-1.6C14.7,12.7,14,13.5,14,14.3z
	 M19.6,20.9C19.6,20.9,19.6,20.9,19.6,20.9c-0.4-1.9-2.1-3.3-4.1-3.3s-3.7,1.4-4.1,3.3c0,0,0,0,0,0c0,0,0,0,0,0L19.6,20.9
	C19.6,21,19.6,21,19.6,20.9z M19.6,22.6h-8.1c-0.5,0-1-0.2-1.3-0.6c-0.3-0.4-0.4-0.9-0.3-1.4c0.3-1.3,1-2.5,2-3.3
	c0.4-0.3,0.8-0.6,1.3-0.8c-0.5-0.6-0.8-1.3-0.8-2.1c0-1.8,1.5-3.3,3.3-3.3s3.3,1.5,3.3,3.3c0,0.8-0.3,1.6-0.8,2.1
	c0.5,0.2,0.9,0.5,1.3,0.8c1,0.8,1.7,2,2,3.2c0,0,0,0,0,0.1c0.1,0.5,0,1-0.3,1.4C20.6,22.4,20.1,22.6,19.6,22.6z M7,22.7h-2
	c-2,0-3.5-1.6-3.5-3.5V3.5C1.4,1.6,3,0,4.9,0h10.9c2,0,3.5,1.6,3.5,3.5v5.3c0,0.5-0.4,0.9-0.9,0.9c-0.5,0-0.9-0.4-0.9-0.9V3.5
	c0-1-0.8-1.8-1.8-1.8H4.9c-1,0-1.8,0.8-1.8,1.8v15.6c0,1,0.8,1.8,1.8,1.8h2c0.5,0,0.9,0.4,0.9,0.9C7.8,22.3,7.4,22.7,7,22.7z"/>
</svg>
