<svg xmlns="http://www.w3.org/2000/svg" xmlns:xlink="http://www.w3.org/1999/xlink" viewBox="0 0 22.7 22.7" fill="currentColor">
<path d="M21.2,15.6c0,0-2.6-2-2.6-8.4c0-4-3.2-7.2-7.2-7.2S4.1,3.2,4.1,7.2c0,6.5-2.6,8.4-2.6,8.4c-0.4,0.3-0.5,0.7-0.4,1.2
	c0.1,0.4,0.5,0.7,1,0.7h18.6c0.4,0,0.8-0.3,1-0.7C21.7,16.4,21.6,15.9,21.2,15.6z M4.3,15.5c0.9-1.5,1.9-4.1,1.9-8.2
	c0-2.8,2.3-5.2,5.2-5.2s5.2,2.3,5.2,5.2c0,4.1,1,6.7,1.9,8.2H4.3z"/>
<path d="M13.6,19.7c-0.5-0.3-1.1-0.1-1.4,0.4c-0.4,0.6-1.4,0.6-1.8,0c-0.3-0.5-0.9-0.7-1.4-0.4c-0.5,0.3-0.7,0.9-0.4,1.4
	c0.6,1,1.6,1.5,2.7,1.5s2.1-0.6,2.7-1.5C14.3,20.6,14.1,20,13.6,19.7z"/>
</svg>
