<svg xmlns="http://www.w3.org/2000/svg" xmlns:xlink="http://www.w3.org/1999/xlink" viewBox="0 0 22.7 22.7" fill="currentColor">
<path d="M11.4,8.8H11C9.1,8.7,7.7,7.2,7.7,5.3s1.6-3.5,3.5-3.5s3.5,1.6,3.5,3.5C14.7,7.2,13.3,8.7,11.4,8.8 M11,10.7
	c0.2,0,0.3,0,0.5,0c4,0.1,7.2,3.4,7.2,7.5v0.5c0,1.2-1,2.2-2.2,2.2H5.9c-1.2,0-2.2-1-2.2-2.2v-0.5C3.8,14.1,7,10.9,11,10.7 M20.5,17
	c-0.3-2.3-1.5-4.4-3.2-5.9c-0.8-0.7-1.7-1.2-2.6-1.6c0.9-0.7,1.5-1.7,1.8-2.8c0.2-0.8,0.2-1.7,0.1-2.5c-0.1-0.7-0.4-1.3-0.8-1.9
	c-1.1-1.6-3-2.5-5-2.3S7.1,1.4,6.4,3.2C6.1,3.9,6,4.6,6,5.3C6,6.2,6.2,7.2,6.7,8C7,8.6,7.4,9.1,8,9.5c-2.2,0.9-3.9,2.5-5,4.6
	c-0.4,0.7-0.6,1.5-0.8,2.3c0,0.2-0.1,0.4-0.1,0.6C2,17.4,2,17.8,2,18.2v0.5c0,2.2,1.8,4,4,4h10.6c2.2,0,4-1.8,4-4v-0.5
	C20.6,17.7,20.5,17.3,20.5,17"/>
</svg>
