<svg xmlns="http://www.w3.org/2000/svg" xmlns:xlink="http://www.w3.org/1999/xlink" viewBox="0 0 22.7 22.7" fill="currentColor">
<g>
	<path d="M4.2,11.6c0,4,3.2,7.2,7.2,7.2c4,0,7.2-3.2,7.2-7.2c0-4-3.2-7.2-7.2-7.2C7.4,4.5,4.2,7.7,4.2,11.6z M11.9,7.5
		c0,0.4,0,0.4,0.4,0.5c0.3,0,0.6,0.1,0.8,0.3c0.1,0.1,0.2,0.2,0.2,0.3c-0.1,0.2-0.1,0.5-0.2,0.7c-0.1,0.2-0.1,0.3-0.3,0.2
		c-0.4-0.2-0.9-0.3-1.3-0.3c-0.1,0-0.2,0-0.4,0.1c-0.4,0.2-0.5,0.6-0.1,0.9c0.2,0.1,0.4,0.2,0.6,0.3c0.4,0.2,0.7,0.3,1,0.5
		c1.1,0.6,1.4,2,0.6,3c-0.3,0.3-0.6,0.6-1,0.7c-0.2,0.1-0.3,0.2-0.3,0.3c0,0.2,0,0.4,0,0.6c0,0.2-0.1,0.3-0.2,0.3
		c-0.2,0-0.4,0-0.6,0c-0.2,0-0.3-0.1-0.3-0.3c0-0.1,0-0.3,0-0.4c0-0.3,0-0.3-0.3-0.4c-0.4-0.1-0.7-0.1-1.1-0.3
		c-0.3-0.1-0.3-0.2-0.2-0.5c0.1-0.2,0.1-0.4,0.2-0.6C9.5,13,9.5,13,9.7,13.1c0.4,0.2,0.8,0.3,1.2,0.4c0.3,0,0.5,0,0.8-0.1
		c0.5-0.2,0.5-0.8,0.1-1.1c-0.1-0.1-0.3-0.2-0.4-0.3c-0.4-0.2-0.8-0.3-1.2-0.6c-0.6-0.4-1-0.9-1-1.7c0.1-0.9,0.5-1.4,1.3-1.7
		c0.3-0.1,0.3-0.1,0.3-0.5V7.2c0-0.3,0.1-0.3,0.3-0.3h0.2C11.9,6.9,11.9,6.9,11.9,7.5z"/>
	<path d="M21.3,5.9L22,5.3c0.3-0.3,0.1-0.9-0.4-1L19.1,4c-0.4,0-0.7,0.3-0.6,0.6l0.2,2.6c0,0.5,0.6,0.7,1,0.4l0.5-0.5
		c1.8,3.7,1,8.3-1.9,11.2C15.2,21.3,10.5,22,6.7,20l-0.7,1.3c1.7,0.9,3.5,1.4,5.4,1.4c3,0,5.9-1.1,8.1-3.3
		C22.9,15.8,23.7,10.3,21.3,5.9z"/>
	<path d="M3.2,15l-0.6,0.6C0.7,11.9,1.4,7.3,4.4,4.4C7.4,1.3,12.2,0.6,16,2.7l0.7-1.3C12.4-1,6.8-0.2,3.3,3.3s-4.3,9-2,13.4l0.2-0.1
		l-0.8,0.8c-0.3,0.3-0.1,0.9,0.4,1l2.6,0.2c0.4,0,0.7-0.3,0.6-0.6l-0.2-2.6C4.1,14.9,3.5,14.7,3.2,15z"/>
</g>
</svg>
