<svg xmlns="http://www.w3.org/2000/svg" xmlns:xlink="http://www.w3.org/1999/xlink" viewBox="0 0 12.7 17" fill="currentColor">
<g transform="matrix(0.0599337,0,0,0.0599337,-7.28794,-5.57085)">
	<path d="M332.5,290c0,0-2.1-35.9-36.5-67.1c-10.9-9.3-23.8-16.4-37.9-20.7c12.9-7.8,22.6-20.6,26.5-35.2c2.4-9.1,2.7-18.3,0.9-27.5
		c-1.5-7.6-4.6-14.8-8.9-21.2c-25.8-38.2-85.8-32.4-103.7,10.1c-2.9,6.8-4.9,15.6-4.7,23c0.3,11,2.3,19.9,7.9,29.5
		c5,8.7,12.2,16,20.7,21.2c-28,8.5-51.4,28.7-64.5,54.7c-4.7,9.3-6.5,16.1-8.9,26.7c-0.5,2.1-0.6,4.2-0.8,6.4
		c-0.6,4.5-0.9,9.1-0.9,13.7v5.5c0,23.8,19.3,43.1,43.1,43.1h125.6c23.8,0,43.1-19.3,43.1-43.1v-5.5
		C333.3,299.1,333,294.5,332.5,290z M181,151.6c0-25.5,20.7-46.3,46.3-46.3s46.3,20.7,46.3,46.3c0,24.6-19.4,44.8-43.6,46.2h-5.3
		C200.3,196.4,181,176.2,181,151.6z M320.2,309.2c0,16.6-13.5,30.1-30.1,30.1H164.5c-16.6,0-30.1-13.5-30.1-30.1v-5.5
		c0-50.3,40.2-91.5,90.2-92.9c1.2,0.1,4.3,0.1,5.5,0c50,1.5,90.2,42.6,90.2,92.9L320.2,309.2L320.2,309.2z"/>
</g>
</svg>
