<svg xmlns="http://www.w3.org/2000/svg" xmlns:xlink="http://www.w3.org/1999/xlink" viewBox="0 0 22.7 22.7" fill="currentColor">
<g id="icon-qrcode" transform="matrix(0.0738636,0,0,0.0738636,0,-2.36364)">
	<path d="M83.7,255.3v27.9H55.8v-27.9H83.7z M83.7,87.8v27.9H55.8V87.8H83.7z M251.2,87.8v27.9h-27.9V87.8H251.2z M27.9,310.9h83.7
		v-83.5H27.9V310.9z M27.9,143.6h83.7V59.9H27.9V143.6z M195.4,143.6h83.7V59.9h-83.7V143.6z M139.6,199.5V339H0V199.5H139.6z
		 M251.2,311.1V339h-27.9v-27.9H251.2z M307,311.1V339h-27.9v-27.9H307z M307,199.5v83.7h-83.7v-27.9h-27.9V339h-27.9V199.5h83.7
		v27.9h27.9v-27.9H307z M139.6,32v139.6H0V32H139.6z M307,32v139.6H167.5V32H307z"/>
</g>
</svg>
