<svg xmlns="http://www.w3.org/2000/svg" xmlns:xlink="http://www.w3.org/1999/xlink" viewBox="0 0 22.7 22.7" fill="currentColor">
<path d="M15.8,12.7c-0.2,0.3-0.3,0.6-0.3,0.9l0.8,5l-4.5-2.4c-0.3-0.2-0.6-0.2-0.9,0l-4.5,2.4l0.9-5c0-0.3-0.1-0.6-0.3-0.9L3.2,9.2
	l5-0.7c0.3,0,0.6-0.3,0.8-0.5l2.3-4.6l2.3,4.5c0.1,0.3,0.4,0.5,0.8,0.5l5,0.7L15.8,12.7z M22.6,8.1c-0.1-0.4-0.4-0.6-0.8-0.7
	l-6.6-0.9l-3-6c-0.3-0.7-1.5-0.7-1.8,0l-3,5.9L1,7.4C0.6,7.4,0.2,7.7,0,8.1c-0.1,0.4,0,0.8,0.3,1l4.7,4.6l-1.1,6.6
	c-0.1,0.4,0.1,0.8,0.4,1c0.3,0.2,0.7,0.3,1.1,0.1l5.9-3.1l5.9,3.1h0.5c0.2,0,0.4-0.1,0.6-0.2c0.3-0.2,0.5-0.6,0.4-1l-1.1-6.6
	l4.7-4.6C22.6,8.9,22.7,8.4,22.6,8.1z"/>
</svg>
