<svg xmlns="http://www.w3.org/2000/svg" xmlns:xlink="http://www.w3.org/1999/xlink" viewBox="0 0 22.7 22.7" fill="currentColor">
<g transform="matrix(0.56015,0,0,0.56015,1.64288,5.75073)">
	<g transform="matrix(1.23333,0,0,1.23333,35.5229,18.5143)">
		<path d="M-8.4-12.3l-0.4,6h4L-3.6-9l-0.7-2.8L-8.4-12.3z"/>
	</g>
	<g transform="matrix(1.23333,0,0,1.23333,12.8604,18.5143)">
		<path d="M-3.4-12.3l0.4,6h-4L-8.2-9l0.7-2.8L-3.4-12.3z"/>
	</g>
	<g transform="matrix(1.23333,0,0,1.23333,51.3189,30.8132)">
		<path d="M-11.8-1.9C-11.8-1.9-11.8-1.9-11.8-1.9c-0.6-3.4-2.1-5.4-4.1-5.4l-0.4,0c-1.8,0-3.3,0-4.7-2.1c-0.1-0.2-0.3-0.3-0.6-0.3
			c-0.1,0-0.3,0-0.4,0.1c-0.3,0.2-0.4,0.6-0.2,1c1.7,2.5,3.7,2.7,5.5,2.7c0.1,0,0.3,0,0.4,0l0.4,0c1,0,1.9,1.1,2.5,3
			c0,0.1,0,0.2-0.1,0.3c-0.1,0.1-0.2,0.1-0.3,0.1H-42c-0.1,0-0.2-0.1-0.3-0.1c-0.1-0.1-0.1-0.2-0.1-0.3c0.6-1.9,1.5-3,2.5-3l0.4,0
			c0.1,0,0.3,0,0.4,0h0c1.9,0,3.9-0.2,5.6-2.7c0.2-0.3,0.1-0.7-0.2-1c-0.1-0.1-0.3-0.1-0.4-0.1c-0.2,0-0.4,0.1-0.6,0.3
			c-1.3,1.9-2.8,2.1-4.6,2.1l-0.7,0c-2,0-3.6,2-4.1,5.4c0,0,0,0.1,0,0.1c0,0,0,0,0,0.1c0,0,0,0.1,0,0.1c0,0.1,0,0.1,0,0.1
			c0,0,0,0.1,0.1,0.1c0,0,0,0.1,0.1,0.1c0,0,0.1,0.1,0.1,0.1c0,0,0.1,0.1,0.1,0.1c0,0,0.1,0,0.1,0c0,0,0.1,0,0.1,0c0,0,0.1,0,0.1,0
			h30.8c0,0,0.1,0,0.1,0c0,0,0.1,0,0.1,0c0.1,0,0.1,0,0.1,0c0,0,0.1,0,0.1-0.1c0,0,0.1-0.1,0.1-0.1c0,0,0-0.1,0.1-0.1
			c0,0,0-0.1,0.1-0.1c0,0,0-0.1,0-0.1C-11.8-1.8-11.8-1.8-11.8-1.9C-11.8-1.8-11.8-1.8-11.8-1.9"/>
	</g>
	<g transform="matrix(1.23333,0,0,1.23333,42.0895,4.74695)">
		<path d="M-9.8,2.9c0,0.8-0.6,1.4-1.4,1.4h-1.9c-0.1,0-0.2,0-0.3-0.1c-0.1-0.1-0.1-0.2-0.1-0.3c0.3-1.1,0.4-2.2,0.4-3.3
			c0-0.2,0-0.5,0-0.7c0-0.1,0-0.2,0.1-0.2c0.1-0.1,0.2-0.1,0.2-0.1h1.6c0.8,0,1.4,0.6,1.4,1.4V2.9z M-28.1-0.5c0.1,0,0.2,0,0.2,0.1
			c0.1,0.1,0.1,0.2,0.1,0.2l0,0.1c0,0.2,0,0.4,0,0.6c0,1.1,0.1,2.2,0.4,3.3c0,0.1,0,0.2-0.1,0.3c-0.1,0.1-0.2,0.1-0.3,0.1h-1.9
			c-0.8,0-1.4-0.6-1.4-1.4V0.8c0-0.8,0.6-1.4,1.4-1.4H-28.1z M-10.3-1.7c-0.1,0-0.2-0.1-0.2-0.2v-0.3c0-3.3-0.8-5.7-2.5-7.4
			c-1.7-1.7-4.2-2.5-7.4-2.5s-5.7,0.8-7.4,2.5c-1.7,1.7-2.5,4.2-2.5,7.4v0.3c0,0.1-0.1,0.1-0.2,0.2c-1.1,0.4-1.9,1.4-1.9,2.6v2.1
			c0,1.5,1.2,2.7,2.7,2.7h2.8c0,0,0,0.1,0.1,0.1c1.4,3.6,4,6.1,6.4,6.1c0.4,0,0.8-0.1,1.3-0.2c0.4-0.1,0.6-0.5,0.4-0.9
			c-0.1-0.3-0.4-0.5-0.7-0.5c-0.1,0-0.1,0-0.2,0c-0.3,0.1-0.6,0.1-0.8,0.1c-2.4,0-6-3.9-6-9.9c0-6,3.3-7.2,6-7.2c2,0,3.6,0.7,4.6,2
			c0.1,0.2,0.3,0.3,0.5,0.3c0.2,0,0.3,0,0.4-0.1c0.1-0.1,0.2-0.3,0.3-0.5c0-0.2,0-0.4-0.1-0.5C-16-7.2-18-8.1-20.4-8.1
			c-3.8,0-6.3,2.1-7.1,5.9c0,0.2-0.2,0.3-0.3,0.3h-0.8c-0.2,0-0.3-0.2-0.3-0.3c0-2.9,0.7-5,2.1-6.4c1.4-1.4,3.5-2.1,6.5-2.1
			s5,0.7,6.5,2.1c1.4,1.4,2.1,3.5,2.1,6.4c0,0.2-0.2,0.3-0.3,0.3h-0.4l-1.2,0h0v0c0,0,0,0-0.1,0c-0.4,0-0.6,0.4-0.6,0.8
			c0.1,0.5,0.1,1.1,0.1,1.7c0,1.4-0.2,2.8-0.7,4.2c-0.1,0.2,0,0.4,0,0.5c0.1,0.2,0.2,0.3,0.4,0.3c0.1,0,0.1,0,0.2,0v0h0l0,0l0,0h2.3
			c0.2,0,0.3,0.2,0.3,0.3c0,0.8-0.6,1.4-1.4,1.4h-4.1c-0.2,0-0.3-0.2-0.3-0.3V6c0-0.4-0.3-0.7-0.7-0.7C-18.7,5.3-19,5.6-19,6V8
			c0,0.4,0.3,0.7,0.7,0.7h5.1c1.5,0,2.7-1.2,2.7-2.7V5.8c0-0.1,0.1-0.3,0.2-0.3C-9.2,5.1-8.4,4-8.4,2.9V0.8
			C-8.4-0.3-9.2-1.4-10.3-1.7"/>
	</g>
</g>
</svg>
