<svg xmlns="http://www.w3.org/2000/svg" xmlns:xlink="http://www.w3.org/1999/xlink" viewBox="0 0 22.7 22.7" fill="currentColor">
<path d="M16.1,5.3c0.5,0,0.9,0.4,0.9,0.9c0,0.5-0.4,0.9-0.9,0.9H6.6c-0.5,0-0.9-0.4-0.9-0.9c0-0.5,0.4-0.9,0.9-0.9H16.1z M12.4,8.9
	c0.5,0,0.9,0.4,0.9,0.9c0,0.5-0.4,0.9-0.9,0.9H6.6c-0.5,0-0.9-0.4-0.9-0.9c0-0.5,0.4-0.9,0.9-0.9H12.4z M10.4,12.4
	c0.5,0,0.9,0.4,0.9,0.9c0,0.5-0.4,0.9-0.9,0.9H6.6c-0.5,0-0.9-0.4-0.9-0.9c0-0.5,0.4-0.9,0.9-0.9H10.4z M7.8,22.7H5.7
	c-2,0-3.7-1.6-3.7-3.5V3.5C2,1.6,3.7,0,5.7,0H17c2,0,3.7,1.6,3.7,3.5v5.3c0,0.5-0.4,0.9-0.9,0.9c-0.5,0-0.9-0.4-0.9-0.9V3.5
	c0-1-0.8-1.8-1.8-1.8H5.7c-1,0-1.8,0.8-1.8,1.8v15.6c0,1,0.8,1.8,1.8,1.8h2.1c0.5,0,0.9,0.4,0.9,0.9C8.7,22.3,8.3,22.7,7.8,22.7z
	 M14.5,20.2c0.1-0.3,0.2-0.6,0.2-0.8c0.1-0.3,0.2-0.4,0.5-0.2c0.5,0.3,1.1,0.4,1.7,0.5c0.4,0,0.7,0,1.1-0.1c0.6-0.3,0.7-1,0.2-1.4
	c-0.2-0.1-0.4-0.3-0.6-0.3c-0.6-0.2-1.2-0.4-1.7-0.7c-0.9-0.5-1.4-1.2-1.3-2.2c0.1-1.1,0.7-1.9,1.8-2.2c0.4-0.2,0.4-0.2,0.5-0.6
	v-0.5c0-0.3,0.1-0.4,0.4-0.4h0.3c0.8,0,0.8,0,0.8,0.7c0,0.5,0,0.5,0.5,0.6c0.4,0.1,0.8,0.2,1.2,0.3c0.2,0.1,0.3,0.2,0.2,0.4
	c-0.1,0.3-0.2,0.6-0.3,0.9c-0.1,0.3-0.2,0.3-0.5,0.2c-0.6-0.3-1.2-0.4-1.9-0.4c-0.2,0-0.3,0-0.5,0.1c-0.6,0.2-0.7,0.8-0.2,1.2
	c0.2,0.2,0.5,0.3,0.8,0.4c0.5,0.2,1,0.4,1.5,0.6c1.5,0.8,1.9,2.6,0.8,3.9c-0.4,0.4-0.9,0.7-1.5,0.9c-0.3,0.1-0.4,0.2-0.4,0.4
	c0,0.3,0,0.5,0,0.7c0,0.2-0.1,0.3-0.3,0.3c-0.3,0-0.6,0-0.8,0c-0.2,0-0.4-0.1-0.4-0.4c0-0.2,0-0.4,0-0.5c0-0.4,0-0.4-0.4-0.5
	c-0.5-0.1-1-0.2-1.5-0.4C14.4,20.7,14.4,20.6,14.5,20.2z"/>
</svg>
