<svg xmlns="http://www.w3.org/2000/svg" xmlns:xlink="http://www.w3.org/1999/xlink" viewBox="0 0 22.7 22.7" fill="currentColor">
<path d="M11,9.5h2c0.4,0,0.7-0.3,0.7-0.7c0-0.4-0.3-0.7-0.7-0.7h-1V7.4c0-0.4-0.3-0.7-0.7-0.7c-0.3,0-0.7,0.3-0.7,0.7v0.7
	c-1,0.2-1.7,1-1.7,2c0,1.1,0.9,2,2,2h0.7c0.3,0,0.6,0.3,0.6,0.6s-0.3,0.6-0.6,0.6h-2c-0.4,0-0.7,0.3-0.7,0.7c0,0.4,0.3,0.7,0.7,0.7
	h0.9v0.7c0,0.4,0.3,0.7,0.7,0.7c0.4,0,0.7-0.3,0.7-0.7v-0.7c1-0.2,1.7-1,1.7-2c0-1.1-0.9-2-2-2H11c-0.3,0-0.6-0.3-0.6-0.6
	C10.4,9.8,10.7,9.5,11,9.5z"/>
<path d="M5.9,6.7H3.5C3.2,6.7,2.8,7,2.8,7.4c0,0.4,0.3,0.7,0.7,0.7h2.4c0.4,0,0.7-0.3,0.7-0.7C6.6,7,6.3,6.7,5.9,6.7z"/>
<path d="M19.1,14.6h-2.4c-0.4,0-0.7,0.3-0.7,0.7c0,0.4,0.3,0.7,0.7,0.7h2.4c0.4,0,0.7-0.3,0.7-0.7C19.8,14.9,19.5,14.6,19.1,14.6z"
	/>
<path d="M20.1,3.8H2.6v0.1C1.2,3.9,0,5,0,6.4v9.8c0,1.4,1.2,2.6,2.6,2.6h17.5c1.4,0,2.6-1.1,2.6-2.6V6.4C22.7,5,21.5,3.8,20.1,3.8z
	 M21.3,16.3c0,0.6-0.5,1.2-1.2,1.2H2.6c-0.6,0-1.2-0.5-1.2-1.2V6.4c0-0.6,0.5-1.2,1.2-1.2h17.5v0.1c0.6,0,1.2,0.5,1.2,1.2V16.3z"/>
</svg>
