<svg xmlns="http://www.w3.org/2000/svg" xmlns:xlink="http://www.w3.org/1999/xlink" viewBox="0 0 22.7 22.7" fill="currentColor">
<g>
	<path d="M6.9,9.5c2.6,0,4.8-2.1,4.8-4.8C11.6,2.1,9.5,0,6.9,0C4.3,0,2.1,2.1,2.1,4.8C2.1,7.4,4.3,9.5,6.9,9.5z
		 M5.5,6.3c0-0.1,0.1-0.3,0.1-0.4c0-0.2,0.1-0.2,0.2-0.1C6.1,5.9,6.3,6,6.6,6c0.2,0,0.3,0,0.5-0.1c0.3-0.1,0.4-0.5,0.1-0.7
		C7.1,5.1,7,5.1,6.9,5C6.6,4.9,6.4,4.8,6.1,4.6C5.7,4.4,5.4,4,5.5,3.5c0-0.6,0.4-1,0.9-1.1c0.2-0.1,0.2-0.1,0.2-0.3V1.8
		c0-0.2,0-0.2,0.2-0.2h0.2c0.4,0,0.4,0,0.4,0.4c0,0.3,0,0.3,0.2,0.3c0.2,0,0.4,0.1,0.5,0.2c0.1,0,0.1,0.1,0.1,0.2
		C8.1,2.9,8.1,3,8,3.2c0,0.1-0.1,0.2-0.2,0.1C7.5,3.1,7.2,3.1,6.9,3.1c-0.1,0-0.2,0-0.2,0C6.4,3.3,6.4,3.6,6.6,3.8
		C6.7,3.9,6.9,3.9,7,4c0.2,0.1,0.5,0.2,0.7,0.3c0.7,0.4,0.9,1.3,0.4,2C7.9,6.5,7.7,6.6,7.4,6.7C7.3,6.8,7.2,6.8,7.2,7
		c0,0.1,0,0.3,0,0.4c0,0.1-0.1,0.2-0.2,0.2c-0.1,0-0.3,0-0.4,0c-0.1,0-0.2-0.1-0.2-0.2c0-0.1,0-0.2,0-0.3c0-0.2,0-0.2-0.2-0.2
		c-0.2,0-0.5-0.1-0.7-0.2C5.4,6.5,5.4,6.5,5.5,6.3z"/>
	<path d="M19.6,10.5h-0.2c-0.5-1.2-1.3-2.2-2.3-3.1c-0.1-0.5,0-1,0.3-1.5c0.3-0.4,0.3-0.9,0-1.4
		c-0.3-0.4-0.7-0.6-1.2-0.6c-1,0.1-1.9,0.5-2.6,1.1c-0.4,0.4-0.8,0.9-0.9,1.5c-0.7,2.8-3.1,4.7-5.9,4.7c-1.4,0-2.6-0.4-3.7-1.3
		C3,9.8,2.8,9.7,2.6,9.8C2.3,9.8,2.2,10,2.1,10.2c-0.5,1-0.7,2-0.7,3.1c0,0.6,0.1,1.2,0.2,1.7c0,0,0,0,0,0c0.1,0.6,0.3,1.1,0.6,1.6
		c0.4,1,1,1.8,1.6,2.4c0.8,0.8,0.9,1.8,0.9,2.2l0,0.3c0,0.6,0.6,1.1,1.2,1.1h3c0.6,0,1.2-0.5,1.2-1.2c0.3,0,0.6,0,0.9,0
		c0,0.6,0.6,1.1,1.2,1.1h3c0.7,0,1.2-0.5,1.2-1.2v-0.7c0-0.1,0.1-0.9,0.8-1.5l0.1-0.1c0,0,0,0,0,0c0,0,0,0,0,0c1-0.9,1.7-2,2.2-3.1
		h0.1c0.9,0,1.6-0.7,1.6-1.6v-2.2C21.3,11.2,20.5,10.5,19.6,10.5z M19.8,14.3c0,0.1-0.1,0.2-0.2,0.2H19c-0.3,0-0.6,0.2-0.7,0.5
		c-0.3,1.1-1,2.1-1.9,3c0,0-0.1,0.1-0.1,0.1c0,0-0.1,0-0.1,0.1c-1.1,1-1.2,2.2-1.3,2.6v0.5h-2.5v-0.5c0-0.2-0.1-0.4-0.2-0.5
		c-0.2-0.1-0.4-0.2-0.6-0.2c-0.7,0.1-1.4,0.1-2.2,0c-0.2,0-0.4,0-0.6,0.2c-0.2,0.1-0.2,0.3-0.2,0.5v0.5H6.2v0c0-0.7-0.2-2-1.3-3.2
		c-0.5-0.5-0.9-1.2-1.3-2c-0.2-0.4-0.4-0.8-0.5-1.3c0,0,0,0,0-0.1c-0.1-0.5-0.2-0.9-0.2-1.4c0-0.6,0.1-1.1,0.2-1.7
		c1.1,0.7,2.4,1,3.8,1c3.5,0,6.5-2.4,7.4-5.8c0.1-0.3,0.2-0.5,0.4-0.7c0.4-0.3,0.8-0.6,1.4-0.7c-0.4,0.8-0.5,1.6-0.3,2.3
		c0,0.2,0.1,0.4,0.3,0.6c1.1,0.8,1.8,1.9,2.2,3.1c0.1,0.3,0.4,0.5,0.7,0.5h0.7c0.1,0,0.2,0.1,0.2,0.2V14.3z"/>
	<circle cx="15.7" cy="11.1" r="0.7"/>
</g>
</svg>
