<svg xmlns="http://www.w3.org/2000/svg" xmlns:xlink="http://www.w3.org/1999/xlink" viewBox="0 0 22.7 22.7" fill="currentColor">
<g transform="matrix(1.12,0,0,1.12,14,22.4)">
	<path d="M-2.4-16c-2.2,0-4,1.8-4,4h2c0-1.1,0.9-2,2-2s2,0.9,2,2c0,2-3,1.8-3,5.1h2c0-2.3,3-2.5,3-5.1C1.7-14.1-0.1-16-2.4-16
		 M-2.4-1.8c-4.5,0-8.1-3.6-8.1-8.1S-6.8-18-2.4-18s8.1,3.6,8.1,8.1C5.7-5.4,2.1-1.8-2.4-1.8 M-2.4-20C-8-20-12.5-15.5-12.5-9.9
		C-12.5-4.3-8,0.2-2.4,0.2S7.7-4.3,7.7-9.9C7.7-15.5,3.2-20-2.4-20 M-3.4-3.8h2v-2h-2V-3.8z"/>
</g>
</svg>
