<svg viewBox="0 0 32 23" xmlns="http://www.w3.org/2000/svg" xmlns:xlink="http://www.w3.org/1999/xlink" fill="currentColor">
    <g transform="matrix(0.399092,0,0,0.399092,29.1604,16.8412)">
        <path d="M0,-14.995C-0.412,-12.923 -2.426,-11.578 -4.497,-11.99C-6.568,-12.401 -7.914,-14.415 -7.502,-16.487C-7.091,-18.558 -5.077,-19.904 -3.006,-19.492C-0.934,-19.08 0.411,-17.067 0,-14.995M-4.091,5.581C-4.503,7.653 -6.517,8.998 -8.588,8.587C-10.659,8.174 -12.005,6.161 -11.593,4.089C-11.182,2.018 -9.168,0.672 -7.097,1.084C-5.024,1.496 -3.679,3.509 -4.091,5.581M-12.334,-6.752C-12.745,-4.681 -14.759,-3.335 -16.83,-3.747C-18.902,-4.159 -20.248,-6.172 -19.836,-8.244C-19.424,-10.315 -17.41,-11.661 -15.339,-11.249C-13.268,-10.837 -11.922,-8.824 -12.334,-6.752M-20.576,-19.086C-20.988,-17.014 -23.001,-15.668 -25.073,-16.08C-27.145,-16.492 -28.49,-18.505 -28.078,-20.577C-27.667,-22.649 -25.653,-23.995 -23.582,-23.582C-21.51,-23.171 -20.164,-21.157 -20.576,-19.086M-24.667,1.49C-25.079,3.562 -27.093,4.908 -29.164,4.496C-31.235,4.084 -32.581,2.07 -32.169,-0.001C-31.757,-2.073 -29.744,-3.418 -27.672,-3.007C-25.601,-2.595 -24.255,-0.581 -24.667,1.49M3.814,-23.609L-28.309,-29.995C-30.092,-30.349 -31.841,-29.181 -32.195,-27.397L-38.582,4.725C-38.937,6.509 -37.768,8.258 -35.983,8.613L-3.861,14.999C-2.078,15.354 -0.328,14.185 0.026,12.401L6.412,-19.722C6.767,-21.505 5.598,-23.254 3.814,-23.609" style="fill:white;fill-rule:nonzero;"/>
    </g>
    <g transform="matrix(0.399092,0,0,0.399092,12.1803,13.3053)">
        <path d="M0,-19.699C-1.985,-18.977 -4.18,-20.001 -4.902,-21.986C-5.624,-23.97 -4.601,-26.165 -2.615,-26.887C-0.631,-27.609 1.564,-26.586 2.286,-24.601C3.008,-22.616 1.984,-20.421 0,-19.699M-6.271,-6.256C-8.257,-5.534 -10.451,-6.557 -11.174,-8.542C-11.896,-10.527 -10.872,-12.722 -8.887,-13.444C-6.901,-14.166 -4.707,-13.142 -3.985,-11.157C-3.263,-9.172 -4.287,-6.978 -6.271,-6.256M-12.543,7.188C-14.528,7.91 -16.723,6.886 -17.444,4.901C-18.167,2.916 -17.143,0.722 -15.158,-0.001C-13.173,-0.722 -10.979,0.301 -10.257,2.286C-9.534,4.271 -10.558,6.466 -12.543,7.188M8.08,-24.434L5.75,-30.897C5.061,-32.809 2.932,-33.81 1.02,-33.121L-28.078,-22.631C-29.991,-21.941 -30.991,-19.813 -30.302,-17.9L-19.812,11.197C-19.123,13.11 -16.994,14.111 -15.082,13.421L-0.307,8.094L5.191,-19.563C5.582,-21.522 6.633,-23.214 8.08,-24.434" style="fill:white;fill-rule:nonzero;"/>
    </g>
</svg>
