<svg viewBox="0 0 25 25" xmlns="http://www.w3.org/2000/svg" xmlns:xlink="http://www.w3.org/1999/xlink" fill="currentColor">
    <g transform="matrix(1.1063,0,0,1.1063,17.7517,6.0902)">
        <path d="M0,11.249L-1.345,9.654L0.295,5.06L2.433,4.012L4.774,6.569C4.635,7.98 4.186,9.344 3.459,10.563L0,11.249ZM-2.436,15.03C-3.245,15.248 -4.078,15.36 -4.916,15.363C-5.926,15.362 -6.93,15.204 -7.892,14.894L-8.767,12.17L-7.367,10.494L-2.451,10.494L-1.081,12.116L-2.436,15.03ZM-12.943,11.125C-13.875,9.772 -14.447,8.205 -14.606,6.57L-12.251,4.012L-10.103,5.062L-8.485,9.662L-9.853,11.301L-12.943,11.125ZM-8.46,-3.436L-5.598,-1.892L-5.598,0.826L-9.616,3.754L-11.81,2.683L-12.492,-0.483C-11.427,-1.801 -10.038,-2.818 -8.461,-3.437L-8.46,-3.436ZM-4.209,-1.889L-1.347,-3.428C0.227,-2.805 1.611,-1.784 2.672,-0.465L1.99,2.682L-0.193,3.754L-4.21,0.828L-4.209,-1.889ZM-4.916,-5.505C-11.06,-5.498 -16.038,-0.52 -16.046,5.624C-16.039,11.768 -11.06,16.747 -4.916,16.754C1.228,16.747 6.207,11.768 6.214,5.624C6.207,-0.52 1.228,-5.498 -4.916,-5.505" style="fill:white;fill-rule:nonzero;"/>
    </g>
</svg>
