<svg viewBox="0 0 30 20" xmlns="http://www.w3.org/2000/svg" xmlns:xlink="http://www.w3.org/1999/xlink" fill="currentColor">
    <g transform="matrix(0.415656,0,0,0.415656,0,0)">
        <path d="M52.156,36.203L39.571,36.203L39.571,10.26L52.156,10.26L52.156,36.203ZM35.474,36.203L22.889,36.203L22.889,10.26L35.474,10.26L35.474,36.203ZM18.792,36.203L6.207,36.203L6.207,10.26L18.792,10.26L18.792,36.203ZM71.608,11.153C71.608,8.339 69.327,6.059 66.513,6.059C63.699,6.059 61.418,8.339 61.418,11.153C61.418,13.098 62.508,14.787 64.11,15.646L64.11,37.808L58.362,37.808L58.362,2.725C58.362,1.227 57.136,0 55.637,0L2.725,0C1.226,0 0,1.227 0,2.725L0,43.737C0,45.236 1.226,46.462 2.725,46.462L55.637,46.462C57.136,46.462 58.362,45.236 58.362,43.737L58.362,42.613L66.513,42.613C67.84,42.613 68.916,41.538 68.916,40.21L68.916,15.646C70.518,14.787 71.608,13.098 71.608,11.153" style="fill:white;fill-rule:nonzero;"/>
    </g>
</svg>
