<svg viewBox="0 0 32 24" xmlns="http://www.w3.org/2000/svg" xmlns:xlink="http://www.w3.org/1999/xlink" fill="currentColor">
    <g transform="matrix(1.14021,0,0,1.14021,29.0198,19.2764)">
        <path d="M0,-13.474L-4.85,-14.294C-4.966,-14.922 -5.271,-15.5 -5.722,-15.952C-6.313,-16.552 -7.121,-16.89 -7.963,-16.89L-15.163,-16.906L-15.169,-16.906C-16.702,-16.903 -18.014,-15.807 -18.29,-14.299L-23.17,-13.474C-24.66,-13.219 -25.663,-11.807 -25.413,-10.316L-23.478,1.145C-23.259,2.465 -22.116,3.432 -20.778,3.428C-20.625,3.428 -20.474,3.415 -20.323,3.39L-16.364,2.72C-15.996,2.866 -15.603,2.943 -15.206,2.944L-8.006,2.958C-7.593,2.958 -7.183,2.878 -6.801,2.72L-2.844,3.39C-2.694,3.415 -2.542,3.428 -2.389,3.428C-1.051,3.432 0.092,2.465 0.311,1.145L2.245,-10.316C2.496,-11.807 1.493,-13.219 0.003,-13.474M-20.538,2.139C-20.619,2.152 -20.7,2.159 -20.781,2.159C-21.498,2.157 -22.109,1.64 -22.23,0.934L-24.165,-10.523C-24.299,-11.322 -23.763,-12.078 -22.965,-12.217L-18.353,-12.997L-18.362,-8.945L-18.778,-9.297C-18.884,-9.382 -19.039,-9.366 -19.124,-9.26C-19.131,-9.251 -19.137,-9.243 -19.143,-9.233L-21.485,-5.184C-21.55,-5.071 -21.525,-4.927 -21.426,-4.842L-18.377,-2.26L-18.377,-0.239C-18.38,0.449 -18.156,1.12 -17.741,1.669L-20.538,2.139ZM-6.297,-0.217C-6.303,0.719 -7.061,1.477 -7.997,1.483L-15.197,1.466C-16.138,1.462 -16.897,0.697 -16.897,-0.243L-16.867,-13.734C-16.862,-14.671 -16.104,-15.429 -15.167,-15.434L-7.967,-15.419C-7.027,-15.413 -6.267,-14.649 -6.267,-13.709L-6.297,-0.217ZM1.007,-10.545L-0.927,0.917C-1.048,1.623 -1.659,2.14 -2.375,2.142C-2.457,2.142 -2.539,2.136 -2.619,2.122L-5.433,1.645C-5.03,1.103 -4.812,0.445 -4.81,-0.23L-4.81,-2.376L-4.435,-2.293C-4.354,-2.275 -4.27,-2.305 -4.218,-2.37C-4.166,-2.435 -4.156,-2.524 -4.191,-2.599C-4.471,-3.253 -4.59,-3.965 -4.537,-4.674C-4.499,-4.672 -4.46,-4.672 -4.422,-4.674C-4.504,-3.878 -3.977,-3.147 -3.196,-2.974C-2.348,-2.788 -1.509,-3.326 -1.323,-4.174C-1.138,-5.023 -1.675,-5.861 -2.523,-6.049C-2.762,-6.101 -3.01,-6.098 -3.247,-6.039C-3.268,-6.103 -3.295,-6.166 -3.327,-6.226C-2.961,-6.45 -2.703,-6.813 -2.61,-7.232C-2.424,-8.081 -2.961,-8.921 -3.81,-9.108C-4.144,-9.181 -4.492,-9.142 -4.801,-8.998L-4.792,-13.018L-0.205,-12.243C0.592,-12.103 1.128,-11.348 0.995,-10.549M-0.496,-11.523C-0.512,-11.526 -0.527,-11.528 -0.543,-11.528C-0.643,-11.525 -0.731,-11.466 -0.772,-11.375L-1.413,-10.251C-1.43,-10.222 -1.442,-10.191 -1.449,-10.158C-1.458,-10.111 -1.445,-10.062 -1.414,-10.025C-1.384,-9.99 -1.342,-9.967 -1.296,-9.959L-1.263,-9.959C-1.186,-9.962 -1.117,-10.01 -1.087,-10.082L-0.98,-10.282L-0.444,-10.19L-0.407,-9.962C-0.402,-9.876 -0.34,-9.805 -0.256,-9.789L-0.219,-9.789C-0.184,-9.787 -0.149,-9.797 -0.119,-9.816C-0.078,-9.841 -0.05,-9.884 -0.044,-9.932C-0.039,-9.965 -0.039,-9.999 -0.044,-10.032L-0.283,-11.295C-0.315,-11.473 -0.415,-11.527 -0.493,-11.539M-0.809,-10.591L-0.579,-11.016L-0.501,-10.538L-0.809,-10.591ZM-22.393,-11.398C-22.439,-11.505 -22.553,-11.567 -22.668,-11.546C-22.786,-11.523 -22.873,-11.422 -22.879,-11.302L-23.117,-10.038C-23.124,-10.005 -23.124,-9.971 -23.117,-9.938C-23.11,-9.89 -23.083,-9.848 -23.041,-9.823C-23.011,-9.804 -22.977,-9.795 -22.941,-9.796C-22.929,-9.794 -22.917,-9.794 -22.904,-9.796C-22.847,-9.805 -22.776,-9.843 -22.753,-9.971L-22.716,-10.197L-22.179,-10.289L-22.072,-10.089C-22.042,-10.017 -21.974,-9.969 -21.896,-9.966C-21.885,-9.965 -21.874,-9.965 -21.863,-9.966C-21.817,-9.972 -21.775,-9.995 -21.746,-10.031C-21.714,-10.067 -21.701,-10.117 -21.71,-10.164C-21.716,-10.197 -21.728,-10.229 -21.746,-10.258L-22.393,-11.398ZM-22.663,-10.56L-22.586,-11.039L-22.356,-10.613L-22.663,-10.56ZM-8.535,-5.193C-8.521,-5.209 -7.123,-6.779 -9.242,-9.006L-11.411,-11.094C-11.507,-11.186 -11.658,-11.186 -11.754,-11.094L-13.925,-8.994C-16.035,-6.776 -14.639,-5.206 -14.625,-5.194C-14.342,-4.835 -13.915,-4.619 -13.458,-4.603C-12.839,-4.667 -12.273,-4.98 -11.891,-5.471C-12.037,-4.661 -12.361,-3.893 -12.839,-3.223C-12.901,-3.141 -12.913,-3.032 -12.868,-2.939C-12.822,-2.847 -12.728,-2.788 -12.625,-2.788L-10.531,-2.788C-10.428,-2.787 -10.333,-2.846 -10.287,-2.939C-10.242,-3.032 -10.253,-3.141 -10.316,-3.223C-10.795,-3.892 -11.119,-4.66 -11.263,-5.47C-10.881,-4.98 -10.315,-4.667 -9.697,-4.603C-9.242,-4.619 -8.816,-4.834 -8.533,-5.192M-14.592,-12.82C-14.571,-12.717 -14.481,-12.641 -14.376,-12.64C-14.322,-12.639 -14.27,-12.658 -14.229,-12.693C-14.186,-12.728 -14.161,-12.782 -14.162,-12.838C-14.164,-12.877 -14.171,-12.916 -14.186,-12.952L-14.698,-14.363C-14.73,-14.495 -14.849,-14.588 -14.985,-14.587C-15.125,-14.584 -15.244,-14.486 -15.273,-14.35L-15.793,-12.95C-15.806,-12.914 -15.812,-12.877 -15.811,-12.84C-15.813,-12.784 -15.79,-12.73 -15.748,-12.693C-15.708,-12.657 -15.655,-12.638 -15.601,-12.639C-15.501,-12.641 -15.416,-12.712 -15.395,-12.81L-15.308,-13.062L-14.676,-13.062L-14.592,-12.82ZM-15.172,-13.459L-14.989,-13.99L-14.809,-13.459L-15.172,-13.459ZM-7.565,-1.306C-7.665,-1.305 -7.751,-1.235 -7.772,-1.137L-7.859,-0.884L-8.487,-0.884L-8.571,-1.127C-8.591,-1.23 -8.682,-1.306 -8.787,-1.306C-8.841,-1.307 -8.893,-1.289 -8.934,-1.255C-8.977,-1.218 -9.001,-1.164 -9,-1.108C-8.999,-1.069 -8.991,-1.031 -8.977,-0.995L-8.465,0.416C-8.433,0.548 -8.314,0.641 -8.178,0.64C-8.086,0.64 -7.963,0.599 -7.889,0.402L-7.369,-0.998C-7.357,-1.034 -7.351,-1.071 -7.351,-1.108C-7.35,-1.164 -7.373,-1.218 -7.414,-1.255C-7.455,-1.29 -7.506,-1.309 -7.56,-1.308M-8.177,0.044L-8.358,-0.488L-7.995,-0.488L-8.177,0.044Z" style="fill:white;fill-rule:nonzero;"/>
    </g>
</svg>
