<svg viewBox="0 0 26 26" xmlns="http://www.w3.org/2000/svg" xmlns:xlink="http://www.w3.org/1999/xlink" fill="currentColor">
    <g transform="matrix(1.14021,0,0,1.14021,19.2608,20.4166)">
        <path d="M0,-13.41C0.071,-13.413 0.141,-13.436 0.2,-13.475L1,-13.949L1.2,-11.941C1.204,-11.863 1.225,-11.786 1.262,-11.718C1.299,-11.652 1.366,-11.609 1.441,-11.603L1.484,-11.603C1.542,-11.602 1.598,-11.618 1.647,-11.648C1.747,-11.705 1.785,-11.824 1.765,-11.999L1.509,-14.322C1.505,-14.391 1.487,-14.459 1.456,-14.522C1.371,-14.667 1.219,-14.687 1.014,-14.567L-0.076,-13.925C-0.31,-13.786 -0.263,-13.625 -0.214,-13.541C-0.175,-13.459 -0.093,-13.408 -0.003,-13.41L0,-13.41ZM-1.65,-12.438C-1.591,-12.44 -1.534,-12.459 -1.484,-12.491L-1.319,-12.591L-0.44,-11.096L-0.64,-10.976C-0.715,-10.939 -0.772,-10.873 -0.798,-10.794C-0.812,-10.727 -0.799,-10.657 -0.761,-10.6C-0.726,-10.532 -0.659,-10.485 -0.583,-10.475C-0.569,-10.473 -0.555,-10.473 -0.541,-10.475C-0.48,-10.476 -0.42,-10.493 -0.368,-10.525L0.497,-11.035C0.566,-11.07 0.62,-11.13 0.647,-11.203C0.667,-11.276 0.654,-11.353 0.612,-11.416C0.573,-11.494 0.494,-11.545 0.406,-11.547C0.343,-11.544 0.282,-11.525 0.229,-11.491L0.057,-11.391L-0.924,-13.06C-1.014,-13.213 -1.058,-13.25 -1.088,-13.26C-1.154,-13.282 -1.228,-13.268 -1.282,-13.225C-1.354,-13.182 -1.442,-13.125 -1.544,-13.053C-1.626,-12.999 -1.703,-12.936 -1.772,-12.865C-1.862,-12.789 -1.887,-12.661 -1.831,-12.558C-1.797,-12.487 -1.728,-12.441 -1.65,-12.438M-1.879,-14.237C-1.423,-14.804 -0.761,-15.166 -0.038,-15.243C0.062,-15.253 0.162,-15.259 0.262,-15.259C1.658,-15.262 2.831,-14.211 2.979,-12.823C3.138,-11.321 2.051,-9.973 0.549,-9.811C0.449,-9.801 0.349,-9.795 0.249,-9.795C-1.146,-9.792 -2.319,-10.843 -2.469,-12.231C-2.552,-12.954 -2.34,-13.681 -1.882,-14.247L-1.879,-14.237ZM0.25,-9.151C0.374,-9.151 0.497,-9.158 0.62,-9.171C2.476,-9.37 3.819,-11.036 3.62,-12.893C3.433,-14.605 1.987,-15.902 0.264,-15.903C0.141,-15.903 0.017,-15.896 -0.106,-15.882C-1.961,-15.683 -3.305,-14.018 -3.106,-12.162C-2.914,-10.453 -1.469,-9.161 0.25,-9.161L0.25,-9.151ZM-0.85,-16.817C-0.672,-16.836 -0.494,-16.846 -0.316,-16.846C2.166,-16.851 4.252,-14.982 4.517,-12.514C4.659,-11.232 4.282,-9.947 3.469,-8.945C3.053,-8.429 2.536,-8.004 1.949,-7.696C1.065,-8.132 0.092,-8.358 -0.894,-8.357C-1.48,-8.357 -2.064,-8.276 -2.629,-8.117C-2.783,-9.984 -3.669,-11.715 -5.094,-12.932C-4.681,-15.017 -2.963,-16.594 -0.85,-16.827L-0.85,-16.817ZM-10.504,-9.117C-10.386,-9.331 -10.367,-9.587 -10.454,-9.817C-10.543,-10.045 -10.716,-10.23 -10.938,-10.335C-11.106,-10.422 -11.293,-10.467 -11.483,-10.467C-11.671,-10.471 -11.856,-10.415 -12.012,-10.309C-12.101,-10.249 -12.173,-10.169 -12.223,-10.075C-12.261,-9.998 -12.274,-9.91 -12.259,-9.826C-12.247,-9.738 -12.192,-9.66 -12.113,-9.62C-12.005,-9.562 -11.872,-9.586 -11.791,-9.678C-11.725,-9.754 -11.64,-9.812 -11.545,-9.845C-11.446,-9.863 -11.345,-9.844 -11.259,-9.793C-11.185,-9.762 -11.127,-9.701 -11.1,-9.625C-11.076,-9.549 -11.086,-9.466 -11.127,-9.397C-11.172,-9.278 -11.273,-9.19 -11.397,-9.161C-11.403,-9.161 -11.445,-9.161 -11.727,-9.198C-11.854,-9.22 -11.98,-9.155 -12.036,-9.039C-12.092,-8.928 -12.109,-8.765 -11.868,-8.613C-11.605,-8.447 -11.537,-8.262 -11.653,-8.031C-11.69,-7.949 -11.748,-7.876 -11.819,-7.821C-11.953,-7.736 -12.124,-7.736 -12.258,-7.821C-12.372,-7.873 -12.458,-7.973 -12.493,-8.094C-12.512,-8.202 -12.524,-8.311 -12.532,-8.421C-12.532,-8.535 -12.591,-8.642 -12.688,-8.704C-12.764,-8.745 -12.855,-8.75 -12.935,-8.717C-13.014,-8.686 -13.078,-8.627 -13.115,-8.551C-13.238,-8.282 -13.213,-7.968 -13.049,-7.722C-12.932,-7.522 -12.758,-7.363 -12.549,-7.263C-12.369,-7.167 -12.168,-7.116 -11.964,-7.113C-11.874,-7.113 -11.785,-7.124 -11.698,-7.146C-11.407,-7.218 -11.164,-7.418 -11.038,-7.691C-10.861,-7.991 -10.884,-8.369 -11.097,-8.645C-10.837,-8.706 -10.619,-8.883 -10.506,-9.125L-10.504,-9.117ZM-8.641,-9.168C-8.81,-9.255 -8.997,-9.3 -9.187,-9.3C-9.375,-9.304 -9.561,-9.248 -9.716,-9.142C-9.805,-9.083 -9.878,-9.003 -9.927,-8.908C-9.966,-8.831 -9.979,-8.743 -9.964,-8.659C-9.952,-8.571 -9.897,-8.494 -9.818,-8.454C-9.711,-8.396 -9.579,-8.42 -9.498,-8.511C-9.432,-8.587 -9.347,-8.645 -9.251,-8.678C-9.152,-8.696 -9.051,-8.678 -8.965,-8.627C-8.891,-8.595 -8.833,-8.534 -8.806,-8.458C-8.782,-8.382 -8.792,-8.299 -8.832,-8.23C-8.876,-8.109 -8.979,-8.02 -9.105,-7.995C-9.119,-7.995 -9.179,-8.001 -9.432,-8.031C-9.559,-8.053 -9.685,-7.988 -9.741,-7.872C-9.797,-7.762 -9.813,-7.598 -9.572,-7.447C-9.309,-7.281 -9.241,-7.096 -9.358,-6.864C-9.396,-6.781 -9.452,-6.709 -9.524,-6.654C-9.658,-6.569 -9.829,-6.569 -9.963,-6.654C-10.078,-6.706 -10.164,-6.806 -10.198,-6.928C-10.217,-7.035 -10.23,-7.144 -10.237,-7.254C-10.237,-7.368 -10.296,-7.475 -10.393,-7.537C-10.469,-7.578 -10.56,-7.583 -10.64,-7.551C-10.719,-7.52 -10.783,-7.46 -10.82,-7.384C-10.944,-7.115 -10.919,-6.801 -10.754,-6.555C-10.637,-6.355 -10.463,-6.196 -10.254,-6.097C-10.073,-6.001 -9.873,-5.95 -9.668,-5.946C-9.578,-5.946 -9.489,-5.957 -9.402,-5.979C-9.111,-6.051 -8.868,-6.251 -8.742,-6.524C-8.565,-6.824 -8.589,-7.202 -8.802,-7.478C-8.541,-7.537 -8.322,-7.713 -8.207,-7.955C-8.088,-8.169 -8.069,-8.425 -8.156,-8.655C-8.245,-8.885 -8.419,-9.072 -8.643,-9.176L-8.641,-9.168ZM-10.381,-4.768C-10.437,-4.768 -10.492,-4.763 -10.547,-4.763C-12.307,-4.761 -13.758,-6.139 -13.847,-7.897C-13.931,-9.717 -12.526,-11.263 -10.706,-11.351L-10.54,-11.351C-8.779,-11.356 -7.326,-9.976 -7.24,-8.218C-7.158,-6.399 -8.564,-4.858 -10.383,-4.773L-10.381,-4.768ZM-10.538,-12.132C-10.606,-12.132 -10.673,-12.132 -10.738,-12.127C-12.987,-12.019 -14.724,-10.108 -14.616,-7.859C-14.503,-5.695 -12.717,-3.998 -10.55,-3.995C-10.482,-3.995 -10.414,-3.995 -10.35,-4C-8.101,-4.108 -6.364,-6.018 -6.472,-8.268C-6.582,-10.434 -8.37,-12.135 -10.539,-12.137L-10.538,-12.132ZM0.702,-3.625L1.117,-2.705L0.549,-2.449C0.632,-3.115 0.677,-3.456 0.701,-3.63L0.702,-3.625ZM-9.46,-1.671C-9.56,-1.666 -9.66,-1.665 -9.76,-1.665C-12.888,-1.66 -15.469,-4.112 -15.623,-7.237C-15.703,-8.791 -15.156,-10.312 -14.106,-11.461C-13.06,-12.618 -11.596,-13.309 -10.038,-13.381C-9.938,-13.381 -9.838,-13.388 -9.744,-13.388C-6.614,-13.394 -4.033,-10.94 -3.88,-7.814C-3.8,-6.26 -4.347,-4.739 -5.397,-3.591C-6.443,-2.437 -7.905,-1.748 -9.461,-1.676L-9.46,-1.671ZM0.54,-1.849L1.34,-2.209L1.505,-1.843C1.57,-1.698 1.66,-1.624 1.772,-1.624C1.816,-1.625 1.859,-1.636 1.899,-1.655C2.049,-1.708 2.128,-1.872 2.075,-2.022C2.067,-2.043 2.057,-2.064 2.045,-2.083L1.878,-2.453C1.938,-2.478 1.992,-2.516 2.037,-2.564C2.106,-2.636 2.12,-2.744 2.071,-2.831C1.99,-3.012 1.86,-3.006 1.805,-2.992C1.753,-2.987 1.703,-2.972 1.656,-2.948L1.132,-4.112C0.988,-4.43 0.775,-4.536 0.514,-4.418C0.42,-4.38 0.342,-4.311 0.292,-4.224C0.248,-4.138 0.221,-4.043 0.213,-3.946L0.013,-2.427C-0.014,-2.271 0.001,-2.112 0.059,-1.965C0.136,-1.795 0.304,-1.747 0.54,-1.854L0.54,-1.849ZM-1.417,-2.669L-1.001,-1.749L-1.569,-1.493C-1.485,-2.158 -1.441,-2.495 -1.417,-2.674L-1.417,-2.669ZM-1.577,-0.892L-0.777,-1.253L-0.612,-0.887C-0.547,-0.741 -0.457,-0.668 -0.345,-0.668C-0.301,-0.669 -0.258,-0.679 -0.218,-0.698C-0.067,-0.751 0.012,-0.916 -0.042,-1.066C-0.049,-1.088 -0.059,-1.108 -0.071,-1.127L-0.238,-1.497C-0.178,-1.523 -0.124,-1.561 -0.079,-1.608C-0.01,-1.68 0.004,-1.788 -0.045,-1.875C-0.077,-1.99 -0.194,-2.061 -0.311,-2.036C-0.363,-2.031 -0.414,-2.016 -0.461,-1.992L-0.985,-3.156C-1.128,-3.474 -1.342,-3.581 -1.603,-3.462C-1.697,-3.422 -1.776,-3.352 -1.825,-3.262C-1.87,-3.176 -1.896,-3.081 -1.904,-2.985L-2.104,-1.466C-2.132,-1.31 -2.116,-1.151 -2.059,-1.004C-1.98,-0.835 -1.813,-0.795 -1.577,-0.895L-1.577,-0.892ZM-3.187,-2.444C-3.183,-4.089 -1.848,-5.42 -0.203,-5.419C1.441,-5.419 2.776,-4.088 2.78,-2.444C2.776,-0.8 1.441,0.531 -0.203,0.53C-1.849,0.532 -3.185,-0.802 -3.187,-2.448L-3.187,-2.449L-3.187,-2.444ZM-0.898,3.356C-3.601,3.358 -5.873,1.326 -6.17,-1.361C-5.532,-1.731 -4.954,-2.197 -4.458,-2.743C-4.099,-3.14 -3.785,-3.577 -3.522,-4.043C-3.763,-3.547 -3.888,-3.004 -3.888,-2.453C-3.885,-0.421 -2.236,1.224 -0.204,1.222C1.828,1.224 3.477,-0.421 3.479,-2.453C3.478,-4.485 1.829,-6.131 -0.203,-6.129L-0.204,-6.129C-1.503,-6.13 -2.707,-5.446 -3.371,-4.329C-2.958,-5.142 -2.708,-6.027 -2.633,-6.936C-2.076,-7.132 -1.489,-7.234 -0.898,-7.236C2.026,-7.236 4.397,-4.868 4.402,-1.945C4.403,0.982 2.03,3.356 -0.897,3.356L-0.898,3.356ZM2.957,-7.087C3.458,-7.42 3.905,-7.827 4.283,-8.296C5.271,-9.514 5.73,-11.077 5.557,-12.637C5.234,-15.637 2.7,-17.91 -0.318,-17.906C-0.534,-17.906 -0.75,-17.894 -0.965,-17.871C-3.357,-17.608 -5.353,-15.925 -6.015,-13.612C-7.24,-14.362 -8.663,-14.724 -10.097,-14.651C-11.989,-14.564 -13.769,-13.724 -15.039,-12.319C-16.316,-10.921 -16.98,-9.071 -16.883,-7.18C-16.698,-3.381 -13.561,-0.397 -9.757,-0.402C-9.638,-0.402 -9.519,-0.402 -9.399,-0.411C-8.664,-0.446 -7.939,-0.595 -7.25,-0.851C-6.715,2.24 -4.035,4.498 -0.898,4.5C2.657,4.5 5.542,1.622 5.549,-1.933C5.549,-3.964 4.587,-5.875 2.957,-7.087" style="fill:white;fill-rule:nonzero;"/>
    </g>
</svg>
