<svg viewBox="0 0 28 29" xmlns="http://www.w3.org/2000/svg" xmlns:xlink="http://www.w3.org/1999/xlink" fill="currentColor">
    <g transform="matrix(1.14021,0,0,1.14021,27.3711,28.8364)">
        <path d="M0,-25.253C-0.284,-25.363 -0.604,-25.222 -0.714,-24.938C-0.731,-24.894 -0.773,-24.789 -0.834,-24.632C-1.179,-23.757 -2.078,-21.477 -2.962,-19.124L-3.122,-19.124C-3.863,-19.124 -4.575,-18.83 -5.1,-18.306L-5.114,-18.293C-5.235,-18.17 -5.345,-18.036 -5.441,-17.893L-5.526,-17.76L-5.559,-17.704C-5.605,-17.622 -5.648,-17.537 -5.687,-17.451C-5.702,-17.417 -5.716,-17.383 -5.729,-17.351C-5.796,-17.18 -5.846,-17.003 -5.879,-16.823L-5.899,-16.693C-6.034,-15.678 -5.603,-14.671 -4.776,-14.069C-5.866,-10.782 -6.886,-10.25 -7.187,-10.323C-7.469,-10.392 -7.73,-10.965 -7.631,-11.573C-7.17,-14.413 -6.902,-17.766 -8.937,-18.487C-9.363,-18.654 -9.844,-18.606 -10.229,-18.357C-10.86,-17.81 -11.266,-17.048 -11.368,-16.219C-12.258,-16.573 -13.209,-16.748 -14.168,-16.735C-15.207,-16.729 -16.239,-16.568 -17.231,-16.256C-17.331,-16.226 -17.423,-16.195 -17.518,-16.162L-17.818,-16.057L-17.895,-16.028C-17.987,-15.993 -18.079,-15.957 -18.17,-15.92L-18.443,-15.803L-18.533,-15.763L-18.805,-15.635C-18.889,-15.594 -18.972,-15.552 -19.055,-15.508L-19.312,-15.368L-19.413,-15.312L-19.653,-15.171L-19.659,-15.171C-21.027,-14.357 -22.151,-13.188 -22.911,-11.788C-24.182,-9.543 -24.355,-6.839 -23.382,-4.45C-22.522,-2.605 -20.839,-1.275 -18.845,-0.866C-18.34,-0.752 -17.825,-0.695 -17.308,-0.698C-16.074,-0.722 -14.855,-0.967 -13.708,-1.42C-12.668,-0.481 -11.327,0.056 -9.927,0.091C-9.757,0.101 -9.585,0.106 -9.415,0.106C-8.767,0.11 -8.122,0.04 -7.49,-0.103C-6.988,-0.233 -6.686,-0.745 -6.816,-1.247C-6.862,-1.425 -6.959,-1.586 -7.096,-1.709C-8.21,-2.676 -9.385,-3.571 -10.613,-4.388L-10.613,-6.565C-10.614,-7.082 -11.034,-7.5 -11.551,-7.499C-11.658,-7.499 -11.765,-7.48 -11.866,-7.443C-13.146,-6.985 -14.143,-5.961 -14.566,-4.668L-15.785,-4.736L-10.523,-14.75C-10.494,-14.805 -10.47,-14.864 -10.453,-14.924C-10.444,-14.954 -10.437,-14.984 -10.432,-15.014C-10.422,-15.066 -10.418,-15.12 -10.418,-15.173C-10.4,-15.22 -10.389,-15.269 -10.385,-15.319C-10.394,-16.092 -10.125,-16.843 -9.627,-17.435C-9.529,-17.497 -9.406,-17.503 -9.303,-17.451C-8.356,-17.115 -8.159,-15.198 -8.717,-11.751C-8.977,-10.717 -8.435,-9.649 -7.446,-9.251C-7.336,-9.224 -7.224,-9.211 -7.112,-9.211C-6.455,-9.261 -5.855,-9.607 -5.485,-10.153C-4.712,-11.192 -4.131,-12.359 -3.767,-13.602C-2.709,-13.349 -1.602,-13.731 -0.925,-14.581C-0.925,-14.587 -0.915,-14.591 -0.91,-14.597L-0.866,-14.655C-0.648,-14.945 -0.489,-15.276 -0.399,-15.628L-0.363,-15.79L-0.34,-15.927L-0.332,-15.988C-0.321,-16.077 -0.315,-16.168 -0.312,-16.26L-0.312,-16.331C-0.313,-17.401 -0.922,-18.378 -1.884,-18.85C-1.016,-21.157 -0.142,-23.376 0.197,-24.235L0.32,-24.547C0.42,-24.828 0.278,-25.138 0,-25.246L0,-25.253ZM-17.169,-4.479C-17.19,-4.439 -17.206,-4.396 -17.217,-4.352L-17.693,-3.616C-17.867,-3.366 -17.805,-3.022 -17.555,-2.848C-17.305,-2.673 -16.961,-2.735 -16.787,-2.985C-16.78,-2.995 -16.773,-3.005 -16.767,-3.016L-16.356,-3.651L-14.198,-3.531C-13.93,-3.516 -13.69,-3.695 -13.63,-3.957C-13.407,-5.001 -12.697,-5.874 -11.72,-6.304L-11.72,-4.08C-11.72,-3.894 -11.626,-3.72 -11.471,-3.618C-10.294,-2.846 -9.166,-2.004 -8.09,-1.097C-8.529,-1.024 -8.974,-0.986 -9.419,-0.986C-9.568,-0.986 -9.719,-0.986 -9.866,-0.999C-11.113,-1.013 -12.302,-1.527 -13.166,-2.427C-13.324,-2.605 -13.579,-2.661 -13.798,-2.567C-14.91,-2.084 -16.104,-1.82 -17.316,-1.79C-17.75,-1.788 -18.182,-1.835 -18.605,-1.93C-20.264,-2.266 -21.667,-3.367 -22.387,-4.899C-23.553,-8.005 -22.589,-11.508 -19.999,-13.581C-19.867,-10.88 -17.667,-8.742 -14.963,-8.687L-17.169,-4.479ZM-4.135,-7.779C-4.348,-7.842 -4.57,-7.872 -4.793,-7.866C-5.735,-7.804 -6.667,-7.629 -7.568,-7.345C-8.035,-7.202 -8.297,-6.708 -8.155,-6.241C-8.125,-6.142 -8.077,-6.049 -8.015,-5.967C-6.645,-4.178 -5.845,-3.717 -5.49,-3.602C-4.313,-3.3 -3.114,-4.01 -2.813,-5.187C-2.538,-6.261 -3.104,-7.371 -4.135,-7.779M-3.773,-5.354C-3.959,-4.781 -4.575,-4.467 -5.147,-4.653C-5.148,-4.654 -5.148,-4.654 -5.149,-4.654C-5.851,-5.108 -6.458,-5.694 -6.935,-6.381C-6.237,-6.589 -5.519,-6.718 -4.792,-6.766C-4.2,-6.768 -3.719,-6.29 -3.717,-5.699C-3.717,-5.583 -3.735,-5.467 -3.772,-5.357L-3.773,-5.354ZM-17.051,-6.001C-17.285,-6.196 -17.632,-6.165 -17.828,-5.931C-17.932,-5.795 -18.122,-5.759 -18.269,-5.846C-18.395,-5.918 -18.479,-5.999 -18.493,-6.061C-18.497,-6.132 -18.476,-6.203 -18.435,-6.261L-18.442,-6.252L-19.319,-6.922C-19.747,-6.239 -19.54,-5.337 -18.857,-4.91C-18.631,-4.768 -18.372,-4.691 -18.106,-4.687C-17.672,-4.699 -17.264,-4.893 -16.982,-5.222C-16.787,-5.456 -16.818,-5.802 -17.051,-5.998L-17.051,-6.001ZM-20.791,-5.989C-20.895,-5.849 -21.087,-5.81 -21.238,-5.897C-21.364,-5.969 -21.448,-6.049 -21.462,-6.112C-21.465,-6.183 -21.445,-6.253 -21.404,-6.312L-21.411,-6.303L-22.287,-6.973C-22.715,-6.29 -22.508,-5.389 -21.825,-4.961C-21.6,-4.819 -21.34,-4.742 -21.074,-4.738C-20.641,-4.75 -20.232,-4.944 -19.95,-5.273L-20.797,-5.98L-20.791,-5.989ZM-20.791,-7.789C-20.546,-7.644 -20.268,-7.566 -19.984,-7.564C-19.491,-7.577 -19.027,-7.798 -18.706,-8.172C-18.502,-8.399 -18.521,-8.748 -18.748,-8.951C-18.975,-9.155 -19.324,-9.136 -19.527,-8.909C-19.536,-8.899 -19.545,-8.889 -19.553,-8.879C-19.719,-8.67 -20.012,-8.615 -20.243,-8.748C-20.377,-8.824 -20.543,-8.948 -20.574,-9.089C-20.585,-9.21 -20.554,-9.33 -20.485,-9.43L-20.485,-9.423L-21.362,-10.093C-21.619,-9.743 -21.724,-9.303 -21.653,-8.874C-21.542,-8.401 -21.226,-8.003 -20.791,-7.788L-20.791,-7.789ZM-14.174,-15.619C-13.284,-15.638 -12.4,-15.46 -11.588,-15.095L-14.365,-9.811C-16.583,-9.542 -18.599,-11.122 -18.868,-13.339C-18.887,-13.501 -18.897,-13.664 -18.897,-13.827C-18.897,-14 -18.886,-14.172 -18.864,-14.344L-18.62,-14.479L-18.384,-14.601L-18.156,-14.711L-17.911,-14.82C-17.839,-14.851 -17.767,-14.881 -17.694,-14.911L-17.463,-15L-17.148,-15.112C-17.069,-15.138 -16.991,-15.164 -16.911,-15.188C-16.025,-15.465 -15.103,-15.61 -14.174,-15.618L-14.174,-15.619ZM-15.802,-12.086C-14.968,-12.086 -14.292,-12.761 -14.291,-13.595C-14.291,-14.429 -14.966,-15.106 -15.8,-15.106C-16.634,-15.107 -17.31,-14.431 -17.311,-13.597L-17.311,-13.595C-17.31,-12.762 -16.635,-12.087 -15.802,-12.086M-15.802,-14.002C-15.578,-14.002 -15.396,-13.82 -15.396,-13.596C-15.396,-13.372 -15.578,-13.19 -15.802,-13.19C-16.026,-13.19 -16.208,-13.372 -16.208,-13.596C-16.207,-13.819 -16.025,-14.001 -15.802,-14.001L-15.802,-14.002ZM-4.727,-15.748L-2.409,-14.772C-3.261,-14.377 -4.271,-14.747 -4.666,-15.599C-4.689,-15.648 -4.709,-15.697 -4.727,-15.748M-1.506,-15.785L-1.572,-15.617L-4.708,-16.937L-4.652,-17.064L-4.625,-17.117L-4.556,-17.234L-1.465,-15.934L-1.506,-15.785ZM-18.866,-15.976C-18.358,-15.873 -17.863,-16.201 -17.76,-16.709C-17.738,-16.816 -17.735,-16.928 -17.752,-17.037C-18.173,-19.7 -18.767,-20.564 -19.003,-20.812C-19.974,-21.768 -21.536,-21.756 -22.492,-20.786C-23.404,-19.859 -23.441,-18.382 -22.575,-17.412C-22.339,-17.16 -21.506,-16.525 -18.868,-15.976L-18.866,-15.976ZM-21.73,-20.097C-21.184,-20.615 -20.322,-20.595 -19.802,-20.051C-19.3,-19.142 -18.987,-18.141 -18.882,-17.108C-19.909,-17.263 -20.893,-17.624 -21.777,-18.169C-22.295,-18.714 -22.274,-19.577 -21.73,-20.097M-1.682,-17.222L-3.482,-17.98C-2.782,-18.131 -2.063,-17.828 -1.682,-17.222M-13.222,-17.874C-13.051,-17.874 -12.884,-17.929 -12.747,-18.031C-11.979,-18.53 -11.337,-19.201 -10.873,-19.991C-10.552,-20.934 -11.057,-21.959 -12,-22.279C-12.943,-22.6 -13.967,-22.095 -14.288,-21.152C-14.402,-20.242 -14.302,-19.317 -13.997,-18.452C-13.896,-18.108 -13.58,-17.874 -13.222,-17.874M-13.243,-20.796C-13.118,-21.162 -12.72,-21.357 -12.354,-21.232C-12.179,-21.172 -12.035,-21.046 -11.953,-20.88C-11.87,-20.714 -11.857,-20.522 -11.918,-20.346C-12.22,-19.895 -12.604,-19.503 -13.049,-19.191C-13.211,-19.71 -13.277,-20.253 -13.243,-20.796" style="fill:white;fill-rule:nonzero;"/>
    </g>
</svg>
